<?xml version="1.0" encoding="UTF-8"?>
<svg id="Capa_2" data-name="Capa 2" xmlns="http://www.w3.org/2000/svg" viewBox="0 0 484.71 465.16">
  <defs>
    <style>
      .cls-1 {
        fill: #fff;
      }

      .cls-2 {
        fill: #2351b8;
      }

      .cls-3 {
        fill: #80ae41;
      }

      .cls-4 {
        fill: #8ec448;
      }

      .cls-5 {
        fill: #2376b8;
      }
    </style>
  </defs>
  <g id="Capa_1-2" data-name="Capa 1">
    <g>
      <path class="cls-5" d="M321.83,81.07v41.74c-60.29,29.13-83.2,25.47-126.11,39.42v.65h-1.98c-3.61,1.2-7.37,2.53-11.3,4.02V0h58.33c44.77,0,81.06,36.3,81.06,81.07Z"/>
      <path class="cls-5" d="M225.77,361.23c25.24-1.08,60.51-7.26,96.06-22.68v126.61h-76.51c-34.73,0-62.88-28.15-62.88-62.87v-39.74c3.77-.04,8.11-.12,13.28-.26,7.83-.2,17.56-.52,30.05-1.06Z"/>
      <path class="cls-5" d="M182.44,166.9c-12.2,4.61-26.09,10.71-42.65,19.16-53.82,27.48-86.39,54.54-104.01,70.85-1.06.99-2.07,1.93-3.03,2.84-4.46,4.21-8.87,8.97-13.19,14.12v-48.11c0-19.53,8.91-36.98,22.88-48.52,1.94-1.6,3.98-3.09,6.11-4.45.42-.27.85-.54,1.28-.8,2.16-1.32,4.41-2.5,6.73-3.55,7.89-3.57,16.65-5.56,25.88-5.56h111.3c-3.61,1.2-7.37,2.53-11.3,4.02Z"/>
      <path class="cls-5" d="M484.71,162.88v58.34c0,44.77-36.29,81.06-81.06,81.06h-22.33c10.51-8.76,20.47-18.73,29.56-30.03,23.73-29.45,31.91-57.31,47.14-109.37h26.69Z"/>
      <path class="cls-2" d="M98.66,162.89c-34.72,0-62.88,28.15-62.88,62.87v31.15c-1.06.99-2.07,1.93-3.03,2.84-4.46,4.21-8.87,8.97-13.19,14.12v-48.11c0-19.53,8.91-36.98,22.88-48.52,1.94-1.6,3.98-3.08,6.11-4.45.42-.27.85-.54,1.28-.8,2.16-1.31,4.41-2.5,6.73-3.55,7.89-3.56,16.65-5.55,25.88-5.55h16.22Z"/>
      <path class="cls-2" d="M484.71,162.89v58.33c0,44.77-36.29,81.06-81.06,81.06h-9.84c44.76,0,81.06-36.29,81.06-81.06v-58.33h9.84Z"/>
      <path class="cls-2" d="M193.74,162.88c-3.61,1.2-7.37,2.53-11.3,4.02V.01h13.28v162.87h-1.98Z"/>
      <path class="cls-2" d="M258.6,465.16h-13.28c-34.73,0-62.88-28.15-62.88-62.87v-39.74c3.77-.04,8.11-.12,13.28-.26v40c0,34.72,28.15,62.87,62.88,62.87Z"/>
    </g>
    <g id="Capa_3" data-name="Capa 3">
      <path class="cls-1" d="M195.72,162.23v.65h-1.98c.67-.22,1.33-.44,1.98-.65Z"/>
      <path class="cls-4" d="M422.58,177.78c-13,44.44-19.93,68.16-40.14,93.24-45.53,56.55-116.59,73.8-157.16,75.54-67.55,2.9-39.97-1.43-107.23,5.91-32.99,3.59-61.64,11.27-83.18,17.18,6.18-7.58,13.1-14.57,21.21-22.78,15.74-15.91,28.32-25.16,51.93-42.49,12.1-8.88,30.69-22.46,56.66-37.77,24.82-14.64,40.66-21.6,40.13-22.82-.71-1.62-29.77,8.51-59.02,21.25-44.72,19.47-70.81,37.11-121.18,71.6-10.45,7.16-18.47,12.87-24.6,17.95,1.14-2.3,2.37-4.78,3.68-7.39,13.02-25.81,34.59-64.94,57.72-86.8,14.26-13.49,42.42-37.82,90.88-62.56,76.96-39.28,85.93-18.73,162.89-57.83,37.19-18.9,94.35-47.94,115.8-85.61,1.26-2.22,4.53-8.21,6.95-7.64,7.75,1.81,2.61,69.61-15.34,131.02Z"/>
      <path class="cls-3" d="M422.39,178.97c-13,44.44-19.93,68.16-40.14,93.24-45.53,56.55-116.59,73.8-157.16,75.54-67.55,2.9-39.97-1.43-107.23,5.91-32.99,3.59-61.64,11.27-83.18,17.18,5.3-6.5,11.15-12.57,17.81-19.35,16.55-4,35.48-7.85,56.11-10.09,67.26-7.34,39.68-3.01,107.23-5.91,40.57-1.74,111.63-18.99,157.16-75.54,20.21-25.08,27.14-48.8,40.14-93.24,12.51-42.78,18.8-88.67,18.84-113.17,1.56-2.62,3.91-6.03,5.76-5.59,7.75,1.81,2.61,69.61-15.34,131.02Z"/>
    </g>
  </g>
</svg>